General
Complete name                    : Geronimo - An American Legend.mkv
Format                           : Matroska
File size                        : 2.49 GiB
Duration                         : 1h 50mn
Overall bit rate                 : 3 229 Kbps


Video
ID                               : 1
Format                           : AVC
Duration                         : 1h 50mn
Bit rate                         : 2 195 Kbps
Width                            : 702 pixels
Height                           : 428 pixels
Display aspect ratio             : 2.35:1
Frame rate                       : 25.000 fps
Resolution                       : 8 bits
Colorimetry                      : 4:2:0
Scan type                        : Progressive
Bits/(Pixel*Frame)               : 0.292
Stream size                      : 1.70 GiB (68%)
Writing library                  : x264 core 79


Audio #1
ID                               : 2
Format                           : AC-3
Format/Info                      : Audio Coding 3
Codec ID                         : A_AC3
Duration                         : 1h 50mn
Bit rate mode                    : Constant
Bit rate                         : 448 Kbps
Channel(s)                       : 6 channels
Channel positions                : Front: L C R, Surround: L R, LFE
Sampling rate                    : 48.0 KHz
Stream size                      : 354 MiB (14%)
Language                         : English

Audio #2
ID                               : 3
Format                           : MPEG Audio
Format version                   : Version 1
Format profile                   : Layer 3
Mode                             : Joint stereo / MS Stereo
Codec ID                         : A_MPEG/L3
Codec ID/Hint                    : MP3
Duration                         : 1h 50mn
Bit rate mode                    : Constant
Bit rate                         : 128 Kbps
Channel(s)                       : 2 channels
Sampling rate                    : 48.0 KHz
Stream size                      : 101 MiB (4%)
Writing library                  : LAME3.98
Language                         : French

Audio #3
ID                               : 4
Format                           : MPEG Audio
Format version                   : Version 1
Format profile                   : Layer 3
Mode                             : Joint stereo / MS Stereo
Codec ID                         : A_MPEG/L3
Codec ID/Hint                    : MP3
Duration                         : 1h 50mn
Bit rate mode                    : Constant
Bit rate                         : 128 Kbps
Channel(s)                       : 2 channels
Sampling rate                    : 48.0 KHz
Stream size                      : 101 MiB (4%)
Writing library                  : LAME3.98
Language                         : German

Audio #4
ID                               : 5
Format                           : MPEG Audio
Format version                   : Version 1
Format profile                   : Layer 3
Mode                             : Joint stereo / MS Stereo
Codec ID                         : A_MPEG/L3
Codec ID/Hint                    : MP3
Duration                         : 1h 50mn
Bit rate mode                    : Constant
Bit rate                         : 128 Kbps
Channel(s)                       : 2 channels
Sampling rate                    : 48.0 KHz
Stream size                      : 101 MiB (4%)
Writing library                  : LAME3.98
Language                         : Italian

Audio #5
ID                               : 6
Format                           : MPEG Audio
Format version                   : Version 1
Format profile                   : Layer 3
Mode                             : Joint stereo / MS Stereo
Codec ID                         : A_MPEG/L3
Codec ID/Hint                    : MP3
Duration                         : 1h 50mn
Bit rate mode                    : Constant
Bit rate                         : 128 Kbps
Channel(s)                       : 2 channels
Sampling rate                    : 48.0 KHz
Stream size                      : 101 MiB (4%)
Writing library                  : LAME3.98
Language                         : Spanish

Text #1
Language                         : English

Text #2
Language                         : French

Text #3
Language                         : German

Text #4
Language                         : Italian

Text #5
Language                         : Spanish

Text #6
Language                         : Dutch

Text #7
Language                         : Arabic

Text #8
Language                         : Bulgarian

Text #9
Language                         : Croatian

Text #10
Language                         : Czech

Text #11
Language                         : Danish

Text #12
Language                         : Finnish

Text #13
Language                         : Greek

Text #14
Language                         : ?????xxxxx????

Text #15
Language                         : Hindi

Text #16
Language                         : Hungarian

Text #17
Language                         : Icelandic

Text #18
Language                         : Norwegian

Text #19
Language                         : Polish

Text #20
Language                         : Portuguese

Text #21
Language                         : Swedish

Text #22
Language                         : Turkish



